<?xml version="1.0" encoding="utf-8"?>
<!-- Generator: Adobe Illustrator 27.0.1, SVG Export Plug-In . SVG Version: 6.00 Build 0)  -->
<svg version="1.1" id="Layer_1" xmlns="http://www.w3.org/2000/svg" xmlns:xlink="http://www.w3.org/1999/xlink" x="0px" y="0px"
	 viewBox="0 0 1080 1080" style="enable-background:new 0 0 1080 1080;" xml:space="preserve">
<style type="text/css">
	.st0{fill:#78BE20;}
	.st1{fill:#00B5E2;}
	.st2{fill:#FFFFFF;}
	.st3{font-family:'Corbel-Bold';}
	.st4{font-size:146.7298px;}
</style>
<g>
	<g>
		<circle class="st0" cx="957.2" cy="584.1" r="43.7"/>
		<path class="st1" d="M982.7,521.3c-10.4-47.9-58.1-78-105.9-66.8c-46.4,10.9-75.8,57.5-65.6,104.1c10.4,47.9,58.1,78,105.9,66.8
			C963.5,614.4,992.9,567.9,982.7,521.3z M910.2,598.3c-2.8,0.6-5.7,1.1-8.6,1.3v-9.7c0-2.3-1.7-4.4-4-4.7c-2.8-0.3-5.1,1.8-5.1,4.5
			v9.9c-11.8-0.9-23.2-5.3-32.6-12.7c-10.8-8.5-18.2-20.2-21.2-33.7c-0.6-2.9-1.1-5.7-1.3-8.6h9.9c2.3,0,4.4-1.7,4.7-4
			c0.3-2.8-1.8-5.1-4.5-5.1h-10.1c1.9-25.5,20.2-47.9,46.4-53.9c2.9-0.7,5.8-1.1,8.7-1.3v9.2c0,2.3,1.7,4.4,4,4.7
			c2.8,0.3,5.1-1.8,5.1-4.5v-9.4c11.7,0.9,23.1,5.3,32.5,12.7c10.8,8.5,18.2,20.2,21.2,33.7c0.7,2.9,1.1,5.9,1.3,8.8h-9
			c-2.3,0-4.4,1.7-4.7,4c-0.3,2.8,1.8,5.1,4.5,5.1h9.2C954.6,570,936.3,592.3,910.2,598.3z"/>
		<path class="st2" d="M949.8,589.7l23.4-23.4c2.3-2.3,5.9-2.3,8.2,0l0,0c2.3,2.3,2.3,5.9,0,8.2l-23.4,23.4l-4.1,4.1
			c-2.3,2.3-5.9,2.3-8.2,0l-4.1-4.1l-8.6-8.6c-2.3-2.3-2.3-5.9,0-8.2l0,0c2.3-2.3,5.9-2.3,8.2,0L949.8,589.7z"/>
		<g>
			<path class="st1" d="M894.5,542.2L894.5,542.2c-2.1-1.4-2.6-4.3-1.1-6.3l0,0c1.4-2.1,4.3-2.6,6.3-1.1l0,0
				c2.1,1.4,2.6,4.3,1.1,6.3l0,0C899.4,543.1,896.6,543.6,894.5,542.2z"/>
			<path class="st1" d="M903.7,529L903.7,529c-2.1-1.4-2.6-4.3-1.1-6.3l17.6-25.2c1.4-2.1,4.3-2.6,6.3-1.1l0,0
				c2.1,1.4,2.6,4.3,1.1,6.3l-17.6,25.2C908.6,529.9,905.8,530.4,903.7,529z"/>
			<path class="st1" d="M881.3,532.9l-17.8-12.4c-2.1-1.4-2.6-4.3-1.1-6.3l0,0c1.4-2.1,4.3-2.6,6.3-1.1l17.8,12.4
				c2.1,1.4,2.6,4.3,1.1,6.3l0,0C886.2,533.9,883.4,534.4,881.3,532.9z"/>
		</g>
	</g>
	<text transform="matrix(1 0 0 1 79.0938 583.0231)" class="st1 st3 st4">aboutTime</text>
</g>
</svg>
