<?xml version="1.0" encoding="utf-8"?>
<!-- Generator: Adobe Illustrator 27.0.1, SVG Export Plug-In . SVG Version: 6.00 Build 0)  -->
<svg version="1.1" xmlns="http://www.w3.org/2000/svg" xmlns:xlink="http://www.w3.org/1999/xlink" x="0px" y="0px"
	 viewBox="0 0 1920 1080" style="enable-background:new 0 0 1920 1080;" xml:space="preserve">
<style type="text/css">
	.st0{display:none;}
	.st1{display:none;fill:url(#SVGID_1_);}
	
		.st2{clip-path:url(#SVGID_00000026163609746923485840000009510251071614891191_);fill:url(#SVGID_00000171695527037638371950000012713603300045714568_);}
	.st3{clip-path:url(#SVGID_00000026163609746923485840000009510251071614891191_);fill:#FFFFFF;}
	
		.st4{clip-path:url(#SVGID_00000026163609746923485840000009510251071614891191_);fill:url(#SVGID_00000151520829253054772000000015584790008218692495_);}
	
		.st5{opacity:0.33;clip-path:url(#SVGID_00000026163609746923485840000009510251071614891191_);fill:url(#SVGID_00000127723330606480159630000009068790945716897685_);}
	
		.st6{clip-path:url(#SVGID_00000026163609746923485840000009510251071614891191_);fill:url(#SVGID_00000101787347712985949150000017111634681899215544_);}
	.st7{display:inline;}
	.st8{fill:#F2F2F2;}
	.st9{display:inline;fill:#00861C;}
	.st10{font-family:'Corbel-Bold';}
	.st11{font-size:100px;}
	.st12{display:inline;fill:#666666;}
	.st13{font-size:36px;}
	.st14{fill:#78BE20;}
	.st15{fill:#00B5E2;}
	.st16{fill:#FFFFFF;}
	.st17{font-size:72px;}
</style>
<g id="Layer_1" class="st0">
	
		<image style="display:inline;overflow:visible;" width="1920" height="1080" xlink:href="AF26E4C.jpg"  transform="matrix(1 0 0 1 0.2329 -0.3425)">
	</image>
	
		<image style="display:inline;overflow:visible;" width="1920" height="1080" xlink:href="AF26E4B.jpg"  transform="matrix(1 0 0 1 1927 -308)">
	</image>
</g>
<g id="Layer_2">
	<linearGradient id="SVGID_1_" gradientUnits="userSpaceOnUse" x1="960" y1="1093.0701" x2="960" y2="13.0701">
		<stop  offset="2.930284e-07" style="stop-color:#999999"/>
		<stop  offset="1" style="stop-color:#F2F2F2;stop-opacity:0"/>
	</linearGradient>
	<rect class="st1" width="1920" height="1080"/>
	<g>
		<defs>
			<rect id="SVGID_00000098924159244040702130000004745466971299311010_" y="0" width="1920" height="1080"/>
		</defs>
		<clipPath id="SVGID_00000059276269243144583450000010439957107988227515_">
			<use xlink:href="#SVGID_00000098924159244040702130000004745466971299311010_"  style="overflow:visible;"/>
		</clipPath>
		
			<linearGradient id="SVGID_00000088850223477494423670000013114239435054468790_" gradientUnits="userSpaceOnUse" x1="14" y1="-14" x2="708" y2="-14">
			<stop  offset="1.385225e-07" style="stop-color:#05B2DA"/>
			<stop  offset="1" style="stop-color:#06939A"/>
		</linearGradient>
		
			<circle style="clip-path:url(#SVGID_00000059276269243144583450000010439957107988227515_);fill:url(#SVGID_00000088850223477494423670000013114239435054468790_);" cx="361" cy="-14" r="347"/>
		
			<circle style="clip-path:url(#SVGID_00000059276269243144583450000010439957107988227515_);fill:#FFFFFF;" cx="361" cy="-14" r="147"/>
		
			<linearGradient id="SVGID_00000020357927624515917400000008438283404155470234_" gradientUnits="userSpaceOnUse" x1="791" y1="64.5" x2="1784" y2="64.5">
			<stop  offset="1.385225e-07" style="stop-color:#FFD011"/>
			<stop  offset="1" style="stop-color:#7DBF44"/>
		</linearGradient>
		
			<circle style="clip-path:url(#SVGID_00000059276269243144583450000010439957107988227515_);fill:url(#SVGID_00000020357927624515917400000008438283404155470234_);" cx="1287.5" cy="64.5" r="496.5"/>
		
			<linearGradient id="SVGID_00000170265551890360109300000000343576594128685704_" gradientUnits="userSpaceOnUse" x1="659" y1="173.0509" x2="659" y2="1171.0509">
			<stop  offset="4.155676e-07" style="stop-color:#808080"/>
			<stop  offset="0.1912" style="stop-color:#989898;stop-opacity:0.8088"/>
			<stop  offset="0.7407" style="stop-color:#D9D9D9;stop-opacity:0.2593"/>
			<stop  offset="1" style="stop-color:#F2F2F2;stop-opacity:0"/>
		</linearGradient>
		
			<circle style="opacity:0.33;clip-path:url(#SVGID_00000059276269243144583450000010439957107988227515_);fill:url(#SVGID_00000170265551890360109300000000343576594128685704_);" cx="659" cy="661" r="499"/>
		
			<linearGradient id="SVGID_00000034052559206394085260000014396994127232613004_" gradientUnits="userSpaceOnUse" x1="143" y1="384.1783" x2="143" y2="204.1783">
			<stop  offset="7.458905e-08" style="stop-color:#6AA897"/>
			<stop  offset="1" style="stop-color:#1C785C"/>
		</linearGradient>
		
			<circle style="clip-path:url(#SVGID_00000059276269243144583450000010439957107988227515_);fill:url(#SVGID_00000034052559206394085260000014396994127232613004_);" cx="143" cy="292" r="90"/>
	</g>
</g>
<g id="Layer_3" class="st0">
	<g>
		
			<image style="display:inline;overflow:visible;opacity:0.75;" width="582" height="720" xlink:href="AF26E54.png"  transform="matrix(1 0 0 1 213 180)">
		</image>
		<g class="st7">
			<path class="st8" d="M755,885H253.9c-13.8,0-25-11.2-25-25V220c0-13.8,11.2-25,25-25H755c13.8,0,25,11.2,25,25v640
				C780,873.8,768.8,885,755,885z"/>
		</g>
	</g>
	<text transform="matrix(1 0 0 1 842.2676 555.4087)"><tspan x="0" y="0" class="st9 st10 st11">How can we help?</tspan><tspan x="0" y="43.2" class="st12 st10 st13">Select an appointment option to begin</tspan></text>
	<g class="st7">
		<g>
			<circle class="st14" cx="1738.5" cy="906.6" r="21.4"/>
			<path class="st15" d="M1751,875.8c-5.1-23.5-28.5-38.3-52-32.8c-22.8,5.4-37.2,28.2-32.2,51.1c5.1,23.5,28.5,38.3,52,32.8
				C1741.6,921.5,1756,898.7,1751,875.8z M1715.4,913.6c-1.4,0.3-2.8,0.5-4.2,0.6v-4.8c0-1.1-0.8-2.2-2-2.3
				c-1.4-0.2-2.5,0.9-2.5,2.2v4.8c-5.8-0.4-11.4-2.6-16-6.2c-5.3-4.2-8.9-9.9-10.4-16.5c-0.3-1.4-0.5-2.8-0.6-4.2h4.8
				c1.1,0,2.2-0.8,2.3-2c0.2-1.4-0.9-2.5-2.2-2.5h-4.9c0.9-12.5,9.9-23.5,22.8-26.4c1.4-0.3,2.9-0.5,4.3-0.6v4.5
				c0,1.1,0.8,2.2,2,2.3c1.4,0.2,2.5-0.9,2.5-2.2v-4.6c5.8,0.4,11.3,2.6,15.9,6.2c5.3,4.2,8.9,9.9,10.4,16.5
				c0.3,1.4,0.5,2.9,0.6,4.3h-4.4c-1.1,0-2.2,0.8-2.3,2c-0.2,1.4,0.9,2.5,2.2,2.5h4.5C1737.2,899.7,1728.3,910.7,1715.4,913.6z"/>
			<path class="st16" d="M1734.8,909.4l11.5-11.5c1.1-1.1,2.9-1.1,4,0l0,0c1.1,1.1,1.1,2.9,0,4l-11.5,11.5l-2,2
				c-1.1,1.1-2.9,1.1-4,0l-2-2l-4.2-4.2c-1.1-1.1-1.1-2.9,0-4l0,0c1.1-1.1,2.9-1.1,4,0L1734.8,909.4z"/>
			<g>
				<path class="st15" d="M1707.7,886.1L1707.7,886.1c-1-0.7-1.3-2.1-0.5-3.1l0,0c0.7-1,2.1-1.3,3.1-0.5l0,0c1,0.7,1.3,2.1,0.5,3.1
					l0,0C1710.1,886.5,1708.7,886.8,1707.7,886.1z"/>
				<path class="st15" d="M1712.3,879.6L1712.3,879.6c-1-0.7-1.3-2.1-0.5-3.1l8.7-12.4c0.7-1,2.1-1.3,3.1-0.5l0,0
					c1,0.7,1.3,2.1,0.5,3.1l-8.7,12.4C1714.7,880.1,1713.3,880.3,1712.3,879.6z"/>
				<path class="st15" d="M1701.3,881.5l-8.7-6.1c-1-0.7-1.3-2.1-0.5-3.1l0,0c0.7-1,2.1-1.3,3.1-0.5l8.7,6.1c1,0.7,1.3,2.1,0.5,3.1
					l0,0C1703.7,882,1702.3,882.2,1701.3,881.5z"/>
			</g>
		</g>
		<text transform="matrix(1 0 0 1 1307.6113 906.1119)" class="st15 st10 st17">aboutTime</text>
	</g>
</g>
</svg>
